<?xml version="1.0" standalone="no"?>
<!DOCTYPE svg PUBLIC "-//W3C//DTD SVG 20010904//EN"
 "http://www.w3.org/TR/2001/REC-SVG-20010904/DTD/svg10.dtd">
<svg version="1.0" xmlns="http://www.w3.org/2000/svg"
 width="1920.000000pt" height="1920.000000pt" viewBox="0 0 1920.000000 1920.000000"
 preserveAspectRatio="xMidYMid meet">

<g transform="translate(0.000000,1920.000000) scale(0.100000,-0.100000)"
fill="#000000" stroke="none">
<path d="M9295 17764 c-865 -44 -1600 -183 -2360 -444 -1669 -575 -3127 -1698
-4111 -3165 -808 -1204 -1263 -2534 -1376 -4015 -16 -213 -16 -877 0 -1090 76
-993 300 -1896 687 -2770 621 -1402 1639 -2614 2910 -3466 1204 -808 2534
-1263 4015 -1376 213 -16 877 -16 1090 0 993 76 1896 300 2770 687 1266 561
2382 1449 3214 2556 886 1178 1433 2559 1595 4024 36 324 45 504 45 890 0 386
-9 566 -45 890 -106 961 -383 1904 -811 2758 -741 1482 -1912 2704 -3360 3505
-1035 573 -2182 912 -3388 1002 -148 11 -748 21 -875 14z m-4525 -6849 l0 -65
-497 -2 -498 -3 -3 -1442 -2 -1443 2175 0 2175 0 0 -144 0 -144 58 -7 c423
-52 783 -351 912 -757 47 -146 50 -206 50 -1003 0 -699 -2 -756 -19 -840 -66
-312 -264 -578 -543 -728 -113 -61 -211 -94 -346 -118 -143 -24 -192 -24 -334
1 -246 42 -414 127 -591 299 -198 192 -303 421 -328 711 -6 79 -9 381 -6 815
4 754 3 743 66 914 122 334 395 583 740 675 52 14 120 28 152 32 l59 7 0 73 0
74 -2164 0 c-1190 0 -2171 3 -2180 6 -15 6 -16 154 -16 1580 l0 1574 570 0
570 0 0 -65z m6701 -419 c111 -19 195 -162 159 -271 -20 -60 -84 -122 -143
-140 -99 -29 -169 -13 -239 56 -52 52 -63 86 -56 174 5 62 38 117 91 153 34
22 108 42 137 37 8 -2 31 -6 51 -9z m793 -26 l26 -10 0 -345 0 -345 54 44
c175 142 476 134 628 -18 26 -25 61 -75 78 -109 53 -108 60 -178 60 -577 0
-313 -2 -361 -16 -374 -13 -13 -45 -16 -193 -16 -132 0 -181 3 -189 13 -7 8
-12 130 -14 337 -3 315 -4 326 -25 367 -48 90 -123 125 -217 102 -62 -15 -139
-86 -155 -145 -7 -24 -11 -158 -11 -346 0 -294 -1 -308 -19 -318 -11 -6 -92
-10 -190 -10 -141 0 -172 3 -185 16 -14 14 -16 106 -16 864 l0 849 22 15 c18
13 54 16 180 16 86 0 168 -4 182 -10z m2910 0 l26 -10 0 -346 0 -346 41 37
c119 107 322 140 482 78 210 -82 347 -308 347 -572 -1 -226 -84 -408 -235
-516 -100 -71 -158 -89 -295 -90 -110 0 -118 2 -184 33 -39 18 -89 49 -113 68
l-43 35 0 -50 c0 -39 -4 -53 -19 -61 -11 -6 -92 -10 -190 -10 -141 0 -172 3
-185 16 -14 14 -16 106 -16 864 l0 849 22 15 c18 13 54 16 180 16 86 0 168 -4
182 -10z m-4236 -865 c2 -800 1 -861 -15 -872 -21 -16 -335 -18 -364 -3 -19
10 -19 31 -19 860 0 466 3 856 6 864 6 14 30 16 198 14 l191 -3 3 -860z
m-6249 732 c7 -9 12 -109 13 -301 l3 -288 264 291 c145 161 272 296 282 301
10 6 122 10 253 10 203 0 236 -2 236 -15 0 -15 -68 -95 -389 -455 -101 -113
-185 -210 -188 -216 -2 -7 136 -215 307 -463 188 -272 310 -458 306 -466 -4
-13 -42 -15 -224 -15 -205 0 -221 1 -245 20 -14 11 -121 160 -238 329 l-212
309 -78 -81 -78 -82 -1 -235 c0 -170 -3 -239 -12 -248 -8 -8 -66 -12 -193 -12
-127 0 -185 4 -193 12 -17 17 -17 1589 0 1606 18 18 372 17 387 -1z m2102
-437 c160 -30 275 -139 327 -313 23 -76 31 -837 9 -855 -11 -9 -66 -12 -198
-10 l-184 3 -6 330 c-4 230 -9 339 -18 360 -37 88 -108 131 -205 123 -67 -6
-124 -41 -163 -100 l-28 -41 -3 -326 c-2 -212 -7 -330 -14 -338 -14 -18 -358
-19 -376 -1 -9 9 -12 150 -12 575 0 546 1 563 19 573 11 6 89 10 181 10 92 0
170 -4 181 -10 16 -9 19 -22 19 -74 l0 -62 44 41 c113 104 264 145 427 115z
m1339 -23 c111 -37 166 -72 251 -156 115 -114 165 -224 176 -386 14 -210 -87
-411 -265 -529 -120 -79 -217 -108 -366 -107 -184 1 -320 56 -447 181 -155
153 -213 362 -160 573 24 91 44 133 107 216 80 107 220 195 359 227 93 21 252
12 345 -19z m848 -4 c17 -15 34 -79 89 -336 37 -176 69 -315 70 -310 1 4 37
150 78 323 52 215 81 319 92 328 21 15 365 17 393 2 23 -13 30 -35 112 -383
41 -179 65 -262 70 -250 4 10 37 153 72 318 48 220 70 303 82 312 27 20 347
18 363 -1 10 -12 -14 -131 -114 -568 -75 -326 -133 -560 -143 -570 -13 -16
-38 -18 -238 -18 -189 0 -225 2 -238 16 -9 8 -16 16 -16 17 0 10 -140 651
-143 653 -2 2 -34 -141 -72 -319 -37 -177 -74 -332 -82 -344 -13 -23 -16 -23
-242 -23 -180 0 -231 3 -240 14 -11 13 -45 152 -185 763 -74 323 -83 373 -69
386 3 4 82 7 174 7 144 0 170 -2 187 -17z m2621 3 c8 -9 10 -170 9 -582 l-3
-569 -184 -3 c-127 -2 -188 1 -197 9 -12 9 -14 107 -14 570 0 494 2 559 16
573 21 22 355 24 373 2z m2128 -16 c9 -19 13 -105 13 -333 0 -255 3 -314 15
-345 32 -75 90 -114 170 -116 65 0 134 38 173 96 l27 41 3 331 c2 295 4 332
19 344 21 15 355 17 384 2 18 -10 19 -27 19 -573 0 -425 -3 -566 -12 -575 -17
-17 -379 -17 -396 0 -7 7 -12 34 -12 61 l0 49 -41 -37 c-122 -110 -335 -141
-513 -75 -72 28 -163 110 -199 182 -57 114 -60 140 -65 559 l-4 387 24 16 c20
14 50 16 203 14 l179 -3 13 -25z"/>
<path d="M7898 7515 c-369 -62 -660 -332 -753 -699 -16 -61 -25 -127 -25 -172
l0 -74 436 0 435 0 -3 298 -3 297 70 0 70 0 3 -297 2 -298 437 0 436 0 -7 78
c-21 232 -117 444 -276 602 -217 218 -521 316 -822 265z"/>
<path d="M7120 5833 c0 -649 4 -707 50 -843 101 -293 333 -514 635 -606 82
-25 105 -28 255 -28 184 -1 253 13 396 79 235 108 424 321 501 565 40 129 43
184 43 823 l0 617 -940 0 -940 0 0 -607z"/>
<path d="M15375 9541 c-113 -29 -178 -116 -177 -239 1 -165 141 -266 307 -221
52 14 126 90 143 145 35 119 -13 246 -110 292 -50 24 -121 34 -163 23z"/>
<path d="M7842 9529 c-54 -16 -118 -88 -137 -154 -61 -208 145 -383 335 -285
117 60 159 213 93 332 -43 75 -104 112 -192 115 -36 1 -81 -2 -99 -8z"/>
</g>
</svg>
